<?xml version="1.0" encoding="UTF-8" standalone="no"?>
<!-- Generated by graphviz version 2.40.1 (20161225.0304)
 -->

<!-- Title: G Pages: 1 -->

<svg
   width="1429pt"
   height="234pt"
   viewBox="0.00 0.00 1428.86 234.00"
   version="1.1"
   id="svg384"
   sodipodi:docname="dpn-running-example-paper-color.svg"
   inkscape:version="1.2 (dc2aedaf03, 2022-05-15)"
   inkscape:export-filename="dpn-running-example-paper-color.png"
   inkscape:export-xdpi="96"
   inkscape:export-ydpi="96"
   xmlns:inkscape="http://www.inkscape.org/namespaces/inkscape"
   xmlns:sodipodi="http://sodipodi.sourceforge.net/DTD/sodipodi-0.dtd"
   xmlns="http://www.w3.org/2000/svg"
   xmlns:svg="http://www.w3.org/2000/svg">
  <defs
     id="defs388">
    <marker
       style="overflow:visible"
       id="Arrow5"
       refX="0"
       refY="0"
       orient="auto-start-reverse"
       inkscape:stockid="Arrow5"
       markerWidth="5.8874264"
       markerHeight="6.6094756"
       viewBox="0 0 5.8874262 6.6094758"
       inkscape:isstock="true"
       inkscape:collect="always"
       preserveAspectRatio="xMidYMid">
      <path
         transform="scale(0.5)"
         style="fill:context-stroke;fill-rule:evenodd;stroke:context-stroke;stroke-width:1pt"
         d="m 6,0 c -3,1 -7,3 -9,5 0,0 0,-4 2,-5 -2,-1 -2,-5 -2,-5 2,2 6,4 9,5 z"
         id="path8893" />
    </marker>
  </defs>
  <sodipodi:namedview
     id="namedview386"
     pagecolor="#505050"
     bordercolor="#eeeeee"
     borderopacity="1"
     inkscape:showpageshadow="0"
     inkscape:pageopacity="0"
     inkscape:pagecheckerboard="0"
     inkscape:deskcolor="#505050"
     inkscape:document-units="pt"
     showgrid="false"
     inkscape:zoom="0.71221134"
     inkscape:cx="767.32842"
     inkscape:cy="37.910096"
     inkscape:window-width="2560"
     inkscape:window-height="1011"
     inkscape:window-x="0"
     inkscape:window-y="0"
     inkscape:window-maximized="1"
     inkscape:current-layer="svg384" />
  <g
     id="graph0"
     class="graph"
     transform="scale(1 1) rotate(0) translate(4 230)">
    <title
       id="title2">G</title>
    <polygon
       fill="#ffffff"
       stroke="transparent"
       points="-4,4 -4,-230 1424.8637,-230 1424.8637,4 -4,4"
       id="polygon4" />
    <!-- start -->
    <g
       id="node1"
       class="node">
      <title
         id="title6">start</title>
      <ellipse
         fill="none"
         stroke="#000000"
         cx="31.6609"
         cy="-50"
         rx="27.8023"
         ry="27.8023"
         id="ellipse8" />
      <ellipse
         fill="none"
         stroke="#000000"
         cx="31.6609"
         cy="-50"
         rx="31.8227"
         ry="31.8227"
         id="ellipse10" />
      <text
         text-anchor="middle"
         x="31.6609"
         y="-45.8"
         font-family="Times,serif"
         font-size="14.00"
         fill="#000000"
         id="text12">start</text>
    </g>
    <!-- Request -->
    <g
       id="node2"
       class="node">
      <title
         id="title15">Request</title>
      <polygon
         fill="none"
         stroke="#ff7f50"
         points="160.4735,-80.6011 99.2713,-80.6011 99.2713,-19.3989 160.4735,-19.3989 160.4735,-80.6011"
         id="polygon17" />
      <polyline
         fill="none"
         stroke="#ff7f50"
         points="111.2713,-80.6011 99.2713,-68.6011 "
         id="polyline19" />
      <polyline
         fill="none"
         stroke="#ff7f50"
         points="99.2713,-31.3989 111.2713,-19.3989 "
         id="polyline21" />
      <polyline
         fill="none"
         stroke="#ff7f50"
         points="148.4735,-19.3989 160.4735,-31.3989 "
         id="polyline23" />
      <polyline
         fill="none"
         stroke="#ff7f50"
         points="160.4735,-68.6011 148.4735,-80.6011 "
         id="polyline25" />
      <text
         text-anchor="middle"
         x="129.8724"
         y="-45.8"
         font-family="Times,serif"
         font-size="14.00"
         fill="#000000"
         id="text27">Request</text>
    </g>
    <!-- start&#45;&gt;Request -->
    <g
       id="edge1"
       class="edge">
      <title
         id="title30">start-&gt;Request</title>
      <path
         fill="none"
         stroke="#000000"
         d="M63.5474,-50C71.6706,-50 80.5136,-50 89.0168,-50"
         id="path32" />
      <polygon
         fill="#000000"
         stroke="#000000"
         points="89.1492,-53.5001 99.1491,-50 89.1491,-46.5001 89.1492,-53.5001"
         id="polygon34" />
    </g>
    <!-- p_1 -->
    <g
       id="node3"
       class="node">
      <title
         id="title37">p_1</title>
      <ellipse
         fill="none"
         stroke="#000000"
         cx="223.4229"
         cy="-50"
         rx="27"
         ry="18"
         id="ellipse39" />
      <text
         text-anchor="middle"
         x="223.4229"
         y="-45.8"
         font-family="Times,serif"
         font-size="14.00"
         fill="#000000"
         id="text41">p_1</text>
    </g>
    <!-- Request&#45;&gt;p_1 -->
    <g
       id="edge2"
       class="edge">
      <title
         id="title44">Request-&gt;p_1</title>
      <path
         fill="none"
         stroke="#0000ff"
         d="M160.5043,-50C168.6873,-50 177.6216,-50 186.1204,-50"
         id="path46" />
      <polygon
         fill="#0000ff"
         stroke="#0000ff"
         points="186.1914,-53.5001 196.1914,-50 186.1913,-46.5001 186.1914,-53.5001"
         id="polygon48" />
    </g>
    <!-- Register -->
    <g
       id="node4"
       class="node">
      <title
         id="title51">Register</title>
      <polygon
         fill="none"
         stroke="#000000"
         points="348.9021,-95 286.5958,-95 286.5958,-59 348.9021,-59 348.9021,-95"
         id="polygon53" />
      <text
         text-anchor="middle"
         x="317.749"
         y="-72.8"
         font-family="Times,serif"
         font-size="14.00"
         fill="#000000"
         id="text55">Register</text>
    </g>
    <!-- p_1&#45;&gt;Register -->
    <g
       id="edge3"
       class="edge">
      <title
         id="title58">p_1-&gt;Register</title>
      <path
         fill="none"
         stroke="#000000"
         d="M248.7005,-57.2355C257.287,-59.6933 267.117,-62.5071 276.6153,-65.2259"
         id="path60" />
      <polygon
         fill="#000000"
         stroke="#000000"
         points="275.7504,-68.6188 286.3275,-68.0059 277.6767,-61.889 275.7504,-68.6188"
         id="polygon62" />
    </g>
    <!-- skip_1 -->
    <g
       id="node5"
       class="node">
      <title
         id="title65">skip_1</title>
      <polygon
         fill="#000000"
         stroke="#000000"
         points="344.749,-41 290.749,-41 290.749,-5 344.749,-5 344.749,-41"
         id="polygon67" />
      <text
         text-anchor="middle"
         x="317.749"
         y="-18.8"
         font-family="Times,serif"
         font-size="14.00"
         fill="#ffffff"
         id="text69">skip_1</text>
    </g>
    <!-- p_1&#45;&gt;skip_1 -->
    <g
       id="edge4"
       class="edge">
      <title
         id="title72">p_1-&gt;skip_1</title>
      <path
         fill="none"
         stroke="#0000ff"
         d="M248.7005,-42.7645C258.6445,-39.9181 270.2562,-36.5944 281.0891,-33.4936"
         id="path74" />
      <polygon
         fill="#0000ff"
         stroke="#0000ff"
         points="282.0978,-36.8455 290.7485,-30.7286 280.1714,-30.1157 282.0978,-36.8455"
         id="polygon76" />
    </g>
    <!-- p_2 -->
    <g
       id="node6"
       class="node">
      <title
         id="title79">p_2</title>
      <ellipse
         fill="none"
         stroke="#000000"
         cx="412.0751"
         cy="-50"
         rx="27"
         ry="18"
         id="ellipse81" />
      <text
         text-anchor="middle"
         x="412.0751"
         y="-45.8"
         font-family="Times,serif"
         font-size="14.00"
         fill="#000000"
         id="text83">p_2</text>
    </g>
    <!-- Register&#45;&gt;p_2 -->
    <g
       id="edge5"
       class="edge">
      <title
         id="title86">Register-&gt;p_2</title>
      <path
         fill="none"
         stroke="#ff0000"
         d="M349.1582,-68.0094C358.2104,-65.4183 368.1373,-62.5768 377.3767,-59.9321"
         id="path88" />
      <polygon
         fill="#ff0000"
         stroke="#ff0000"
         points="378.4079,-63.2776 387.0586,-57.1607 376.4815,-56.5478 378.4079,-63.2776"
         id="polygon90" />
    </g>
    <!-- skip_1&#45;&gt;p_2 -->
    <g
       id="edge6"
       class="edge">
      <title
         id="title93">skip_1-&gt;p_2</title>
      <path
         fill="none"
         stroke="#0000ff"
         d="M344.7791,-30.7371C354.8453,-33.6185 366.4179,-36.9311 377.096,-39.9876"
         id="path95" />
      <polygon
         fill="#0000ff"
         stroke="#0000ff"
         points="376.4042,-43.43 386.9813,-42.8171 378.3306,-36.7003 376.4042,-43.43"
         id="polygon97" />
    </g>
    <!-- tauSplit_1 -->
    <g
       id="node7"
       class="node">
      <title
         id="title100">tauSplit_1</title>
      <polygon
         fill="#000000"
         stroke="#000000"
         points="548.4158,-93 475.294,-93 475.294,-57 548.4158,-57 548.4158,-93"
         id="polygon102" />
      <text
         text-anchor="middle"
         x="511.8549"
         y="-70.8"
         font-family="Times,serif"
         font-size="14.00"
         fill="#ffffff"
         id="text104">tauSplit_1</text>
    </g>
    <!-- p_2&#45;&gt;tauSplit_1 -->
    <g
       id="edge7"
       class="edge">
      <title
         id="title107">p_2-&gt;tauSplit_1</title>
      <path
         fill="none"
         stroke="#0000ff"
         d="M437.5119,-56.3732C445.9968,-58.4991 455.7354,-60.9392 465.309,-63.3379"
         id="path109" />
      <polygon
         fill="#0000ff"
         stroke="#0000ff"
         points="464.6157,-66.7723 475.1666,-65.8077 466.3171,-59.9822 464.6157,-66.7723"
         id="polygon111" />
    </g>
    <!-- p_3 -->
    <g
       id="node8"
       class="node">
      <title
         id="title114">p_3</title>
      <ellipse
         fill="none"
         stroke="#000000"
         cx="611.6347"
         cy="-154"
         rx="27"
         ry="18"
         id="ellipse116" />
      <text
         text-anchor="middle"
         x="611.6347"
         y="-149.8"
         font-family="Times,serif"
         font-size="14.00"
         fill="#000000"
         id="text118">p_3</text>
    </g>
    <!-- tauSplit_1&#45;&gt;p_3 -->
    <g
       id="edge8"
       class="edge">
      <title
         id="title121">tauSplit_1-&gt;p_3</title>
      <path
         fill="none"
         stroke="#0000ff"
         d="M534.9972,-93.3228C550.2497,-105.3988 570.2377,-121.2242 585.9764,-133.6852"
         id="path123" />
      <polygon
         fill="#0000ff"
         stroke="#0000ff"
         points="584.2131,-136.7533 594.2258,-140.2167 588.5583,-131.2652 584.2131,-136.7533"
         id="polygon125" />
    </g>
    <!-- p_4 -->
    <g
       id="node9"
       class="node">
      <title
         id="title128">p_4</title>
      <ellipse
         fill="none"
         stroke="#000000"
         cx="611.6347"
         cy="-75"
         rx="27"
         ry="18"
         id="ellipse130" />
      <text
         text-anchor="middle"
         x="611.6347"
         y="-70.8"
         font-family="Times,serif"
         font-size="14.00"
         fill="#000000"
         id="text132">p_4</text>
    </g>
    <!-- tauSplit_1&#45;&gt;p_4 -->
    <g
       id="edge9"
       class="edge">
      <title
         id="title135">tauSplit_1-&gt;p_4</title>
      <path
         fill="none"
         stroke="#0000ff"
         d="M548.4426,-75C556.9046,-75 565.9173,-75 574.4064,-75"
         id="path137" />
      <polygon
         fill="#0000ff"
         stroke="#0000ff"
         points="574.4292,-78.5001 584.4292,-75 574.4291,-71.5001 574.4292,-78.5001"
         id="polygon139" />
    </g>
    <!-- Check -->
    <g
       id="node10"
       class="node">
      <title
         id="title142">Check</title>
      <polygon
         fill="none"
         stroke="#000000"
         points="734.1242,-226 680.1242,-226 680.1242,-190 734.1242,-190 734.1242,-226"
         id="polygon144" />
      <text
         text-anchor="middle"
         x="707.1242"
         y="-203.8"
         font-family="Times,serif"
         font-size="14.00"
         fill="#000000"
         id="text146">Check</text>
    </g>
    <!-- p_3&#45;&gt;Check -->
    <g
       id="edge10"
       class="edge">
      <title
         id="title149">p_3-&gt;Check</title>
      <path
         fill="none"
         stroke="#000000"
         d="M632.3545,-165.7172C643.6746,-172.1188 658.0168,-180.2294 671.1057,-187.6313"
         id="path151" />
      <polygon
         fill="#000000"
         stroke="#000000"
         points="669.487,-190.7368 679.9144,-192.6127 672.9328,-184.6436 669.487,-190.7368"
         id="polygon153" />
    </g>
    <!-- skip_2 -->
    <g
       id="node11"
       class="node">
      <title
         id="title156">skip_2</title>
      <polygon
         fill="#000000"
         stroke="#000000"
         points="734.1242,-172 680.1242,-172 680.1242,-136 734.1242,-136 734.1242,-172"
         id="polygon158" />
      <text
         text-anchor="middle"
         x="707.1242"
         y="-149.8"
         font-family="Times,serif"
         font-size="14.00"
         fill="#ffffff"
         id="text160">skip_2</text>
    </g>
    <!-- p_3&#45;&gt;skip_2 -->
    <g
       id="edge11"
       class="edge">
      <title
         id="title163">p_3-&gt;skip_2</title>
      <path
         fill="none"
         stroke="#0000ff"
         d="M638.7427,-154C648.4195,-154 659.4968,-154 669.8775,-154"
         id="path165" />
      <polygon
         fill="#0000ff"
         stroke="#0000ff"
         points="669.9484,-157.5001 679.9484,-154 669.9483,-150.5001 669.9484,-157.5001"
         id="polygon167" />
    </g>
    <!-- PrepDoc -->
    <g
       id="node12"
       class="node">
      <title
         id="title170">PrepDoc</title>
      <polygon
         fill="none"
         stroke="#000000"
         points="739.6032,-118 674.6452,-118 674.6452,-82 739.6032,-82 739.6032,-118"
         id="polygon172" />
      <text
         text-anchor="middle"
         x="707.1242"
         y="-95.8"
         font-family="Times,serif"
         font-size="14.00"
         fill="#000000"
         id="text174">PrepDoc</text>
    </g>
    <!-- p_4&#45;&gt;PrepDoc -->
    <g
       id="edge12"
       class="edge">
      <title
         id="title177">p_4-&gt;PrepDoc</title>
      <path
         fill="none"
         stroke="#000000"
         d="M636.9734,-81.6339C645.503,-83.867 655.2665,-86.4232 664.7443,-88.9046"
         id="path179" />
      <polygon
         fill="#000000"
         stroke="#000000"
         points="663.8937,-92.2998 674.4541,-91.4467 665.6666,-85.528 663.8937,-92.2998"
         id="polygon181" />
    </g>
    <!-- skip_3 -->
    <g
       id="node13"
       class="node">
      <title
         id="title184">skip_3</title>
      <polygon
         fill="#000000"
         stroke="#000000"
         points="734.1242,-64 680.1242,-64 680.1242,-28 734.1242,-28 734.1242,-64"
         id="polygon186" />
      <text
         text-anchor="middle"
         x="707.1242"
         y="-41.8"
         font-family="Times,serif"
         font-size="14.00"
         fill="#ffffff"
         id="text188">skip_3</text>
    </g>
    <!-- p_4&#45;&gt;skip_3 -->
    <g
       id="edge13"
       class="edge">
      <title
         id="title191">p_4-&gt;skip_3</title>
      <path
         fill="none"
         stroke="#0000ff"
         d="M636.2256,-67.5318C646.5686,-64.3906 658.8244,-60.6686 670.2123,-57.2101"
         id="path193" />
      <polygon
         fill="#0000ff"
         stroke="#0000ff"
         points="671.375,-60.5149 679.9264,-54.2599 669.3408,-53.8169 671.375,-60.5149"
         id="polygon195" />
    </g>
    <!-- p_5 -->
    <g
       id="node14"
       class="node">
      <title
         id="title198">p_5</title>
      <ellipse
         fill="none"
         stroke="#000000"
         cx="802.6137"
         cy="-154"
         rx="27"
         ry="18"
         id="ellipse200" />
      <text
         text-anchor="middle"
         x="802.6137"
         y="-149.8"
         font-family="Times,serif"
         font-size="14.00"
         fill="#000000"
         id="text202">p_5</text>
    </g>
    <!-- Check&#45;&gt;p_5 -->
    <g
       id="edge14"
       class="edge">
      <title
         id="title205">Check-&gt;p_5</title>
      <path
         fill="none"
         stroke="#ff0000"
         d="M734.2322,-192.6702C746.2713,-185.862 760.4782,-177.8279 772.8145,-170.8517"
         id="path207" />
      <polygon
         fill="#ff0000"
         stroke="#ff0000"
         points="774.8349,-173.73 781.8166,-165.7609 771.3892,-167.6368 774.8349,-173.73"
         id="polygon209" />
    </g>
    <!-- skip_2&#45;&gt;p_5 -->
    <g
       id="edge15"
       class="edge">
      <title
         id="title212">skip_2-&gt;p_5</title>
      <path
         fill="none"
         stroke="#0000ff"
         d="M734.2322,-154C743.909,-154 754.9863,-154 765.367,-154"
         id="path214" />
      <polygon
         fill="#0000ff"
         stroke="#0000ff"
         points="765.4379,-157.5001 775.4379,-154 765.4378,-150.5001 765.4379,-157.5001"
         id="polygon216" />
    </g>
    <!-- p_6 -->
    <g
       id="node15"
       class="node">
      <title
         id="title219">p_6</title>
      <ellipse
         fill="none"
         stroke="#000000"
         cx="802.6137"
         cy="-99"
         rx="27"
         ry="18"
         id="ellipse221" />
      <text
         text-anchor="middle"
         x="802.6137"
         y="-94.8"
         font-family="Times,serif"
         font-size="14.00"
         fill="#000000"
         id="text223">p_6</text>
    </g>
    <!-- PrepDoc&#45;&gt;p_6 -->
    <g
       id="edge16"
       class="edge">
      <title
         id="title226">PrepDoc-&gt;p_6</title>
      <path
         fill="none"
         stroke="#ff0000"
         d="M739.7192,-99.6587C748.0159,-99.5718 756.9936,-99.4777 765.4973,-99.3887"
         id="path228" />
      <polygon
         fill="#ff0000"
         stroke="#ff0000"
         points="765.5947,-102.888 775.5574,-99.2833 765.5213,-95.8884 765.5947,-102.888"
         id="polygon230" />
    </g>
    <!-- skip_3&#45;&gt;p_6 -->
    <g
       id="edge17"
       class="edge">
      <title
         id="title233">skip_3-&gt;p_6</title>
      <path
         fill="none"
         stroke="#0000ff"
         d="M734.2322,-61.0459C746.2713,-67.728 760.4782,-75.6134 772.8145,-82.4604"
         id="path235" />
      <polygon
         fill="#0000ff"
         stroke="#0000ff"
         points="771.3745,-85.6641 781.8166,-87.4569 774.7716,-79.5437 771.3745,-85.6641"
         id="polygon237" />
    </g>
    <!-- tauJoin_1 -->
    <g
       id="node16"
       class="node">
      <title
         id="title240">tauJoin_1</title>
      <polygon
         fill="#000000"
         stroke="#000000"
         points="936.2757,-117 865.3921,-117 865.3921,-81 936.2757,-81 936.2757,-117"
         id="polygon242" />
      <text
         text-anchor="middle"
         x="900.8339"
         y="-94.8"
         font-family="Times,serif"
         font-size="14.00"
         fill="#ffffff"
         id="text244">tauJoin_1</text>
    </g>
    <!-- p_5&#45;&gt;tauJoin_1 -->
    <g
       id="edge18"
       class="edge">
      <title
         id="title247">p_5-&gt;tauJoin_1</title>
      <path
         fill="none"
         stroke="#0000ff"
         d="M823.4437,-142.3359C833.9564,-136.4491 847.0918,-129.0938 859.5396,-122.1234"
         id="path249" />
      <polygon
         fill="#0000ff"
         stroke="#0000ff"
         points="861.4196,-125.0821 868.4348,-117.1424 857.9995,-118.9745 861.4196,-125.0821"
         id="polygon251" />
    </g>
    <!-- p_6&#45;&gt;tauJoin_1 -->
    <g
       id="edge19"
       class="edge">
      <title
         id="title254">p_6-&gt;tauJoin_1</title>
      <path
         fill="none"
         stroke="#0000ff"
         d="M829.7128,-99C837.6304,-99 846.5104,-99 855.2413,-99"
         id="path256" />
      <polygon
         fill="#0000ff"
         stroke="#0000ff"
         points="855.3557,-102.5001 865.3557,-99 855.3557,-95.5001 855.3557,-102.5001"
         id="polygon258" />
    </g>
    <!-- p_7 -->
    <g
       id="node17"
       class="node">
      <title
         id="title261">p_7</title>
      <ellipse
         fill="none"
         stroke="#000000"
         cx="999.0541"
         cy="-96"
         rx="27"
         ry="18"
         id="ellipse263" />
      <text
         text-anchor="middle"
         x="999.0541"
         y="-91.8"
         font-family="Times,serif"
         font-size="14.00"
         fill="#000000"
         id="text265">p_7</text>
    </g>
    <!-- tauJoin_1&#45;&gt;p_7 -->
    <g
       id="edge20"
       class="edge">
      <title
         id="title268">tauJoin_1-&gt;p_7</title>
      <path
         fill="none"
         stroke="#0000ff"
         d="M936.2936,-97.9169C944.5618,-97.6644 953.3906,-97.3947 961.7366,-97.1398"
         id="path270" />
      <polygon
         fill="#0000ff"
         stroke="#0000ff"
         points="962.0828,-100.631 971.9712,-96.8272 961.869,-93.6342 962.0828,-100.631"
         id="polygon272" />
    </g>
    <!-- FinalCheck -->
    <g
       id="node18"
       class="node">
      <title
         id="title275">FinalCheck</title>
      <polygon
         fill="none"
         stroke="#ff7f50"
         points="1142.3717,-135.0455 1062.2807,-135.0455 1062.2807,-54.9545 1142.3717,-54.9545 1142.3717,-135.0455"
         id="polygon277" />
      <polyline
         fill="none"
         stroke="#ff7f50"
         points="1074.2807,-135.0455 1062.2807,-123.0455 "
         id="polyline279" />
      <polyline
         fill="none"
         stroke="#ff7f50"
         points="1062.2807,-66.9545 1074.2807,-54.9545 "
         id="polyline281" />
      <polyline
         fill="none"
         stroke="#ff7f50"
         points="1130.3717,-54.9545 1142.3717,-66.9545 "
         id="polyline283" />
      <polyline
         fill="none"
         stroke="#ff7f50"
         points="1142.3717,-123.0455 1130.3717,-135.0455 "
         id="polyline285" />
      <text
         text-anchor="middle"
         x="1102.3262"
         y="-90.8"
         font-family="Times,serif"
         font-size="14.00"
         fill="#000000"
         id="text287">FinalCheck</text>
    </g>
    <!-- p_7&#45;&gt;FinalCheck -->
    <g
       id="edge21"
       class="edge">
      <title
         id="title290">p_7-&gt;FinalCheck</title>
      <path
         fill="none"
         stroke="#0000ff"
         d="M1026.1876,-95.7373C1034.1769,-95.6599 1043.185,-95.5727 1052.1352,-95.486"
         id="path292" />
      <polygon
         fill="#0000ff"
         stroke="#0000ff"
         points="1052.1926,-98.9857 1062.1582,-95.389 1052.1248,-91.986 1052.1926,-98.9857"
         id="polygon294" />
    </g>
    <!-- p_8 -->
    <g
       id="node19"
       class="node">
      <title
         id="title297">p_8</title>
      <ellipse
         fill="none"
         stroke="#000000"
         cx="1205.5983"
         cy="-94"
         rx="27"
         ry="18"
         id="ellipse299" />
      <text
         text-anchor="middle"
         x="1205.5983"
         y="-89.8"
         font-family="Times,serif"
         font-size="14.00"
         fill="#000000"
         id="text301">p_8</text>
    </g>
    <!-- FinalCheck&#45;&gt;p_8 -->
    <g
       id="edge22"
       class="edge">
      <title
         id="title304">FinalCheck-&gt;p_8</title>
      <path
         fill="none"
         stroke="#ff0000"
         d="M1142.5496,-94.6105C1150.9917,-94.5288 1159.8623,-94.4429 1168.1963,-94.3622"
         id="path306" />
      <polygon
         fill="#ff0000"
         stroke="#ff0000"
         points="1168.4274,-97.8602 1178.393,-94.2634 1168.3596,-90.8605 1168.4274,-97.8602"
         id="polygon308" />
    </g>
    <!-- OK -->
    <g
       id="node20"
       class="node">
      <title
         id="title311">OK</title>
      <polygon
         fill="none"
         stroke="#000000"
         points="1322.5983,-160 1268.5983,-160 1268.5983,-124 1322.5983,-124 1322.5983,-160"
         id="polygon313" />
      <text
         text-anchor="middle"
         x="1295.5983"
         y="-137.8"
         font-family="Times,serif"
         font-size="14.00"
         fill="#000000"
         id="text315">OK</text>
    </g>
    <!-- p_8&#45;&gt;OK -->
    <g
       id="edge23"
       class="edge">
      <title
         id="title318">p_8-&gt;OK</title>
      <path
         fill="none"
         stroke="#000000"
         d="M1226.927,-105.3753C1236.5922,-110.5301 1248.2941,-116.7711 1259.2787,-122.6295"
         id="path320" />
      <polygon
         fill="#000000"
         stroke="#000000"
         points="1257.8059,-125.8107 1268.2765,-127.4284 1261.1001,-119.6342 1257.8059,-125.8107"
         id="polygon322" />
    </g>
    <!-- NOK -->
    <g
       id="node21"
       class="node">
      <title
         id="title325">NOK</title>
      <polygon
         fill="none"
         stroke="#000000"
         points="1322.5983,-106 1268.5983,-106 1268.5983,-70 1322.5983,-70 1322.5983,-106"
         id="polygon327" />
      <text
         text-anchor="middle"
         x="1295.5983"
         y="-83.8"
         font-family="Times,serif"
         font-size="14.00"
         fill="#000000"
         id="text329">NOK</text>
    </g>
    <!-- p_8&#45;&gt;NOK -->
    <g
       id="edge24"
       class="edge">
      <title
         id="title332">p_8-&gt;NOK</title>
      <path
         fill="none"
         stroke="#000000"
         d="M1232.6012,-92.1998C1240.6259,-91.6648 1249.5648,-91.0689 1258.1291,-90.4979"
         id="path334" />
      <polygon
         fill="#000000"
         stroke="#000000"
         points="1258.5583,-93.9772 1268.3033,-89.8197 1258.0926,-86.9927 1258.5583,-93.9772"
         id="polygon336" />
    </g>
    <!-- skip_4 -->
    <g
       id="node22"
       class="node">
      <title
         id="title339">skip_4</title>
      <polygon
         fill="#000000"
         stroke="#000000"
         points="1322.5983,-41 1268.5983,-41 1268.5983,-5 1322.5983,-5 1322.5983,-41"
         id="polygon341" />
      <text
         text-anchor="middle"
         x="1295.5983"
         y="-18.8"
         font-family="Times,serif"
         font-size="14.00"
         fill="#ffffff"
         id="text343">skip_4</text>
    </g>
    <!-- p_8&#45;&gt;skip_4 -->
    <g
       id="edge25"
       class="edge">
      <title
         id="title346">p_8-&gt;skip_4</title>
      <path
         fill="none"
         stroke="#ff0000"
         d="M1223.3794,-79.9727C1235.1986,-70.6486 1251.0307,-58.1589 1264.859,-47.2499"
         id="path348" />
      <polygon
         fill="#ff0000"
         stroke="#ff0000"
         points="1267.0405,-49.9869 1272.7238,-41.0454 1262.705,-44.4912 1267.0405,-49.9869"
         id="polygon350" />
    </g>
    <!-- sink -->
    <g
       id="node23"
       class="node">
      <title
         id="title353">sink</title>
      <ellipse
         fill="none"
         stroke="#000000"
         cx="1389.731"
         cy="-115"
         rx="27.2489"
         ry="27.2489"
         id="ellipse355" />
      <ellipse
         fill="none"
         stroke="#000000"
         cx="1389.731"
         cy="-115"
         rx="31.266"
         ry="31.266"
         id="ellipse357" />
      <text
         text-anchor="middle"
         x="1389.731"
         y="-110.8"
         font-family="Times,serif"
         font-size="14.00"
         fill="#000000"
         id="text359">sink</text>
    </g>
    <!-- OK&#45;&gt;sink -->
    <g
       id="edge27"
       class="edge">
      <title
         id="title362">OK-&gt;sink</title>
      <path
         fill="none"
         stroke="#000000"
         d="M1322.8254,-134.1905C1331.279,-131.7657 1340.7778,-129.0412 1349.9045,-126.4234"
         id="path364" />
      <polygon
         fill="#000000"
         stroke="#000000"
         points="1350.9475,-129.7655 1359.5949,-123.6439 1349.0174,-123.0368 1350.9475,-129.7655"
         id="polygon366" />
    </g>
    <!-- NOK&#45;&gt;sink -->
    <g
       id="edge28"
       class="edge">
      <title
         id="title369">NOK-&gt;sink</title>
      <path
         fill="none"
         stroke="#000000"
         d="M1322.8254,-95.8095C1331.279,-98.2343 1340.7778,-100.9588 1349.9045,-103.5766"
         id="path371" />
      <polygon
         fill="#000000"
         stroke="#000000"
         points="1349.0174,-106.9632 1359.5949,-106.3561 1350.9475,-100.2345 1349.0174,-106.9632"
         id="polygon373" />
    </g>
    <!-- skip_4&#45;&gt;p_2 -->
    <g
       id="edge26"
       class="edge">
      <title
         id="title376">skip_4-&gt;p_2</title>
      <path
         fill="none"
         stroke="#ff0000"
         d="M1268.513,-17.7233C1231.2399,-10.9329 1161.9672,0 1102.3262,0 611.6347,0 611.6347,0 611.6347,0 551.307,0 483.7136,-21.7661 444.7043,-36.5763"
         id="path378" />
      <polygon
         fill="#ff0000"
         stroke="#ff0000"
         points="443.0129,-33.4783 434.9568,-40.3595 445.5457,-40.004 443.0129,-33.4783"
         id="polygon380" />
    </g>
  </g>
  <path
     style="fill:none;stroke:#000000;stroke-width:1.45;stroke-linecap:butt;stroke-linejoin:miter;stroke-opacity:1;marker-end:url(#Arrow5);stroke-dasharray:none;stroke-dashoffset:0"
     d="m 1105.599,175.21182 v 19.27075 h -29.3448"
     id="path2063" />
</svg>
