<?xml version="1.0" encoding="UTF-8" standalone="no"?>
<!DOCTYPE svg PUBLIC "-//W3C//DTD SVG 1.1//EN" "http://www.w3.org/Graphics/SVG/1.1/DTD/svg11.dtd">
<!-- Generated by graphviz version 2.40.1 (20161225.0304)
 -->
<!-- Title: G Pages: 1 -->
<svg width="3008pt" height="711pt" viewBox="0.00 0.00 3008.30 711.00" xmlns="http://www.w3.org/2000/svg" xmlns:xlink="http://www.w3.org/1999/xlink">
<g id="graph0" class="graph" transform="scale(1 1) rotate(0) translate(4 707)">
<title>G</title>
<polygon fill="#ffffff" stroke="transparent" points="-4,4 -4,-707 3004.3008,-707 3004.3008,4 -4,4"/>
<!-- start -->
<g id="node1" class="node">
<title>start</title>
<ellipse fill="none" stroke="#000000" cx="31.6609" cy="-437" rx="27.8023" ry="27.8023"/>
<ellipse fill="none" stroke="#000000" cx="31.6609" cy="-437" rx="31.8227" ry="31.8227"/>
<text text-anchor="middle" x="31.6609" y="-432.8" font-family="Times,serif" font-size="14.00" fill="#000000">start</text>
</g>
<!-- CreateFine -->
<g id="node2" class="node">
<title>CreateFine</title>
<polygon fill="none" stroke="#000000" points="176.9521,-455 99.111,-455 99.111,-419 176.9521,-419 176.9521,-455"/>
<text text-anchor="middle" x="138.0316" y="-432.8" font-family="Times,serif" font-size="14.00" fill="#000000">CreateFine</text>
</g>
<!-- start&#45;&gt;CreateFine -->
<g id="edge1" class="edge">
<title>start-&gt;CreateFine</title>
<path fill="none" stroke="#000000" d="M63.5756,-437C71.5808,-437 80.3557,-437 88.9844,-437"/>
<polygon fill="#000000" stroke="#000000" points="88.9918,-440.5001 98.9917,-437 88.9917,-433.5001 88.9918,-440.5001"/>
</g>
<!-- p_1 -->
<g id="node3" class="node">
<title>p_1</title>
<ellipse fill="none" stroke="#000000" cx="239.7413" cy="-631" rx="27" ry="18"/>
<text text-anchor="middle" x="239.7413" y="-626.8" font-family="Times,serif" font-size="14.00" fill="#000000">p_1</text>
</g>
<!-- CreateFine&#45;&gt;p_1 -->
<g id="edge2" class="edge">
<title>CreateFine-&gt;p_1</title>
<path fill="none" stroke="#000000" d="M147.6002,-455.251C165.7296,-489.8309 205.1376,-564.9974 226.0568,-604.8984"/>
<polygon fill="#000000" stroke="#000000" points="222.9678,-606.5444 230.711,-613.7758 229.1675,-603.294 222.9678,-606.5444"/>
</g>
<!-- p_2 -->
<g id="node4" class="node">
<title>p_2</title>
<ellipse fill="none" stroke="#000000" cx="239.7413" cy="-437" rx="27" ry="18"/>
<text text-anchor="middle" x="239.7413" y="-432.8" font-family="Times,serif" font-size="14.00" fill="#000000">p_2</text>
</g>
<!-- CreateFine&#45;&gt;p_2 -->
<g id="edge3" class="edge">
<title>CreateFine-&gt;p_2</title>
<path fill="none" stroke="#000000" d="M176.7738,-437C185.142,-437 193.9748,-437 202.2924,-437"/>
<polygon fill="#000000" stroke="#000000" points="202.4787,-440.5001 212.4787,-437 202.4786,-433.5001 202.4787,-440.5001"/>
</g>
<!-- p_3 -->
<g id="node5" class="node">
<title>p_3</title>
<ellipse fill="none" stroke="#000000" cx="239.7413" cy="-99" rx="27" ry="18"/>
<text text-anchor="middle" x="239.7413" y="-94.8" font-family="Times,serif" font-size="14.00" fill="#000000">p_3</text>
</g>
<!-- CreateFine&#45;&gt;p_3 -->
<g id="edge4" class="edge">
<title>CreateFine-&gt;p_3</title>
<path fill="none" stroke="#000000" d="M143.4999,-418.8277C160.3024,-362.9899 211.2567,-193.6595 231.4094,-126.6885"/>
<polygon fill="#000000" stroke="#000000" points="234.8393,-127.4364 234.3693,-116.852 228.1362,-125.4193 234.8393,-127.4364"/>
</g>
<!-- SendAppealToPrefecture -->
<g id="node6" class="node">
<title>SendAppealToPrefecture</title>
<polygon fill="none" stroke="#000000" points="460.4764,-703 302.4957,-703 302.4957,-667 460.4764,-667 460.4764,-703"/>
<text text-anchor="middle" x="381.4861" y="-680.8" font-family="Times,serif" font-size="14.00" fill="#000000">SendAppealToPrefecture</text>
</g>
<!-- p_1&#45;&gt;SendAppealToPrefecture -->
<g id="edge5" class="edge">
<title>p_1-&gt;SendAppealToPrefecture</title>
<path fill="none" stroke="#000000" d="M262.3189,-641.1601C274.2505,-646.4061 289.1936,-652.7827 302.7413,-658 307.508,-659.8357 312.4595,-661.6792 317.4538,-663.4933"/>
<polygon fill="#000000" stroke="#000000" points="316.4792,-666.8618 327.0738,-666.936 318.8379,-660.2712 316.4792,-666.8618"/>
</g>
<!-- skip_1 -->
<g id="node7" class="node">
<title>skip_1</title>
<polygon fill="#000000" stroke="#000000" points="408.4861,-649 354.4861,-649 354.4861,-613 408.4861,-613 408.4861,-649"/>
<text text-anchor="middle" x="381.4861" y="-626.8" font-family="Times,serif" font-size="14.00" fill="#ffffff">skip_1</text>
</g>
<!-- p_1&#45;&gt;skip_1 -->
<g id="edge6" class="edge">
<title>p_1-&gt;skip_1</title>
<path fill="none" stroke="#000000" d="M267.0711,-631C288.9354,-631 319.8266,-631 344.0005,-631"/>
<polygon fill="#000000" stroke="#000000" points="344.2402,-634.5001 354.2402,-631 344.2401,-627.5001 344.2402,-634.5001"/>
</g>
<!-- skip_2 -->
<g id="node8" class="node">
<title>skip_2</title>
<polygon fill="#000000" stroke="#000000" points="1791.7881,-585 1737.7881,-585 1737.7881,-549 1791.7881,-549 1791.7881,-585"/>
<text text-anchor="middle" x="1764.7881" y="-562.8" font-family="Times,serif" font-size="14.00" fill="#ffffff">skip_2</text>
</g>
<!-- p_2&#45;&gt;skip_2 -->
<g id="edge7" class="edge">
<title>p_2-&gt;skip_2</title>
<path fill="none" stroke="#000000" d="M255.1643,-452.0055C295.5414,-489.6314 409.1365,-585 523.2309,-585 523.2309,-585 523.2309,-585 1488.5496,-585 1574.2025,-585 1674.479,-576.276 1727.5048,-570.975"/>
<polygon fill="#000000" stroke="#000000" points="1728.1762,-574.4249 1737.7712,-569.9321 1727.4687,-567.4607 1728.1762,-574.4249"/>
</g>
<!-- tauSplit_1 -->
<g id="node9" class="node">
<title>tauSplit_1</title>
<polygon fill="#000000" stroke="#000000" points="418.047,-315 344.9252,-315 344.9252,-279 418.047,-279 418.047,-315"/>
<text text-anchor="middle" x="381.4861" y="-292.8" font-family="Times,serif" font-size="14.00" fill="#ffffff">tauSplit_1</text>
</g>
<!-- p_2&#45;&gt;tauSplit_1 -->
<g id="edge8" class="edge">
<title>p_2-&gt;tauSplit_1</title>
<path fill="none" stroke="#000000" d="M254.9105,-422.0175C278.9054,-398.318 325.9131,-351.8889 355.3992,-322.7658"/>
<polygon fill="#000000" stroke="#000000" points="358.2,-324.9188 362.8553,-315.4015 353.281,-319.9385 358.2,-324.9188"/>
</g>
<!-- skip_3 -->
<g id="node10" class="node">
<title>skip_3</title>
<polygon fill="#000000" stroke="#000000" points="408.4861,-117 354.4861,-117 354.4861,-81 408.4861,-81 408.4861,-117"/>
<text text-anchor="middle" x="381.4861" y="-94.8" font-family="Times,serif" font-size="14.00" fill="#ffffff">skip_3</text>
</g>
<!-- p_3&#45;&gt;skip_3 -->
<g id="edge9" class="edge">
<title>p_3-&gt;skip_3</title>
<path fill="none" stroke="#000000" d="M267.0711,-99C288.9354,-99 319.8266,-99 344.0005,-99"/>
<polygon fill="#000000" stroke="#000000" points="344.2402,-102.5001 354.2402,-99 344.2401,-95.5001 344.2402,-102.5001"/>
</g>
<!-- skip_4 -->
<g id="node11" class="node">
<title>skip_4</title>
<polygon fill="#000000" stroke="#000000" points="970.5013,-36 916.5013,-36 916.5013,0 970.5013,0 970.5013,-36"/>
<text text-anchor="middle" x="943.5013" y="-13.8" font-family="Times,serif" font-size="14.00" fill="#ffffff">skip_4</text>
</g>
<!-- p_3&#45;&gt;skip_4 -->
<g id="edge10" class="edge">
<title>p_3-&gt;skip_4</title>
<path fill="none" stroke="#000000" d="M261.7823,-88.2716C273.6926,-82.804 288.7815,-76.3992 302.7413,-72 398.2179,-41.9119 423.1256,-26 523.2309,-26 523.2309,-26 523.2309,-26 680.1258,-26 760.6307,-26 854.9136,-22.2195 905.9881,-19.8562"/>
<polygon fill="#000000" stroke="#000000" points="906.3861,-23.3414 916.2105,-19.3752 906.0571,-16.3492 906.3861,-23.3414"/>
</g>
<!-- p_4 -->
<g id="node12" class="node">
<title>p_4</title>
<ellipse fill="none" stroke="#000000" cx="523.2309" cy="-631" rx="27" ry="18"/>
<text text-anchor="middle" x="523.2309" y="-626.8" font-family="Times,serif" font-size="14.00" fill="#000000">p_4</text>
</g>
<!-- SendAppealToPrefecture&#45;&gt;p_4 -->
<g id="edge11" class="edge">
<title>SendAppealToPrefecture-&gt;p_4</title>
<path fill="none" stroke="#000000" d="M435.8983,-666.936C444.0887,-664.0458 452.4086,-661.0124 460.2309,-658 470.3916,-654.087 481.3373,-649.5219 491.2088,-645.2708"/>
<polygon fill="#000000" stroke="#000000" points="492.881,-648.3602 500.6533,-641.1601 490.0873,-641.9418 492.881,-648.3602"/>
</g>
<!-- skip_1&#45;&gt;p_4 -->
<g id="edge12" class="edge">
<title>skip_1-&gt;p_4</title>
<path fill="none" stroke="#000000" d="M408.8159,-631C430.6802,-631 461.5714,-631 485.7453,-631"/>
<polygon fill="#000000" stroke="#000000" points="485.985,-634.5001 495.985,-631 485.9849,-627.5001 485.985,-634.5001"/>
</g>
<!-- p_25 -->
<g id="node13" class="node">
<title>p_25</title>
<ellipse fill="none" stroke="#000000" cx="2272.641" cy="-475" rx="30.2015" ry="18"/>
<text text-anchor="middle" x="2272.641" y="-470.8" font-family="Times,serif" font-size="14.00" fill="#000000">p_25</text>
</g>
<!-- skip_2&#45;&gt;p_25 -->
<g id="edge13" class="edge">
<title>skip_2-&gt;p_25</title>
<path fill="none" stroke="#000000" d="M1791.9843,-562.8304C1830.884,-557.2374 1904.7019,-548 1967.9293,-548 1967.9293,-548 1967.9293,-548 2069.4999,-548 2134.1043,-548 2203.8175,-514.8968 2242.463,-493.2738"/>
<polygon fill="#000000" stroke="#000000" points="2244.6531,-496.0533 2251.5967,-488.0509 2241.1783,-489.9766 2244.6531,-496.0533"/>
</g>
<!-- p_5 -->
<g id="node14" class="node">
<title>p_5</title>
<ellipse fill="none" stroke="#000000" cx="523.2309" cy="-321" rx="27" ry="18"/>
<text text-anchor="middle" x="523.2309" y="-316.8" font-family="Times,serif" font-size="14.00" fill="#000000">p_5</text>
</g>
<!-- tauSplit_1&#45;&gt;p_5 -->
<g id="edge14" class="edge">
<title>tauSplit_1-&gt;p_5</title>
<path fill="none" stroke="#000000" d="M418.3578,-303.2431C439.4095,-306.8075 465.7065,-311.2601 486.701,-314.8148"/>
<polygon fill="#000000" stroke="#000000" points="486.3932,-318.3124 496.8372,-316.5311 487.5618,-311.4107 486.3932,-318.3124"/>
</g>
<!-- p_6 -->
<g id="node15" class="node">
<title>p_6</title>
<ellipse fill="none" stroke="#000000" cx="840.3711" cy="-250" rx="27" ry="18"/>
<text text-anchor="middle" x="840.3711" y="-245.8" font-family="Times,serif" font-size="14.00" fill="#000000">p_6</text>
</g>
<!-- tauSplit_1&#45;&gt;p_6 -->
<g id="edge15" class="edge">
<title>tauSplit_1-&gt;p_6</title>
<path fill="none" stroke="#000000" d="M418.2629,-293.2332C504.2157,-284.4298 717.4757,-262.5872 803.5109,-253.7753"/>
<polygon fill="#000000" stroke="#000000" points="804.0024,-257.2434 813.5938,-252.7426 803.2892,-250.2798 804.0024,-257.2434"/>
</g>
<!-- p_7 -->
<g id="node16" class="node">
<title>p_7</title>
<ellipse fill="none" stroke="#000000" cx="523.2309" cy="-226" rx="27" ry="18"/>
<text text-anchor="middle" x="523.2309" y="-221.8" font-family="Times,serif" font-size="14.00" fill="#000000">p_7</text>
</g>
<!-- tauSplit_1&#45;&gt;p_7 -->
<g id="edge16" class="edge">
<title>tauSplit_1-&gt;p_7</title>
<path fill="none" stroke="#000000" d="M417.621,-278.9C440.6277,-267.376 470.1227,-252.6019 492.0921,-241.5974"/>
<polygon fill="#000000" stroke="#000000" points="493.9319,-244.5904 501.3055,-236.9824 490.7969,-238.3317 493.9319,-244.5904"/>
</g>
<!-- p_8 -->
<g id="node17" class="node">
<title>p_8</title>
<ellipse fill="none" stroke="#000000" cx="523.2309" cy="-99" rx="27" ry="18"/>
<text text-anchor="middle" x="523.2309" y="-94.8" font-family="Times,serif" font-size="14.00" fill="#000000">p_8</text>
</g>
<!-- skip_3&#45;&gt;p_8 -->
<g id="edge17" class="edge">
<title>skip_3-&gt;p_8</title>
<path fill="none" stroke="#000000" d="M408.8159,-99C430.6802,-99 461.5714,-99 485.7453,-99"/>
<polygon fill="#000000" stroke="#000000" points="485.985,-102.5001 495.985,-99 485.9849,-95.5001 485.985,-102.5001"/>
</g>
<!-- p_16 -->
<g id="node18" class="node">
<title>p_16</title>
<ellipse fill="none" stroke="#000000" cx="1046.6315" cy="-126" rx="30.2015" ry="18"/>
<text text-anchor="middle" x="1046.6315" y="-121.8" font-family="Times,serif" font-size="14.00" fill="#000000">p_16</text>
</g>
<!-- skip_4&#45;&gt;p_16 -->
<g id="edge18" class="edge">
<title>skip_4-&gt;p_16</title>
<path fill="none" stroke="#000000" d="M969.8775,-36.1003C973.4918,-38.9387 977.0623,-41.9477 980.2811,-45 998.3652,-62.1492 1016.1097,-84.162 1028.6916,-100.9102"/>
<polygon fill="#000000" stroke="#000000" points="1026.0144,-103.1765 1034.7749,-109.135 1031.6423,-99.0138 1026.0144,-103.1765"/>
</g>
<!-- tauJoin_5 -->
<g id="node19" class="node">
<title>tauJoin_5</title>
<polygon fill="#000000" stroke="#000000" points="2902.257,-605 2831.3734,-605 2831.3734,-569 2902.257,-569 2902.257,-605"/>
<text text-anchor="middle" x="2866.8152" y="-582.8" font-family="Times,serif" font-size="14.00" fill="#ffffff">tauJoin_5</text>
</g>
<!-- p_4&#45;&gt;tauJoin_5 -->
<g id="edge19" class="edge">
<title>p_4-&gt;tauJoin_5</title>
<path fill="none" stroke="#000000" d="M550.38,-630.4269C605.1911,-629.3209 732.9974,-627 840.3711,-627 840.3711,-627 840.3711,-627 2620.5134,-627 2691.2907,-627 2772.0462,-610.7081 2821.2163,-598.9192"/>
<polygon fill="#000000" stroke="#000000" points="2822.3292,-602.2504 2831.2143,-596.4794 2820.6696,-595.45 2822.3292,-602.2504"/>
</g>
<!-- tauJoin_4 -->
<g id="node43" class="node">
<title>tauJoin_4</title>
<polygon fill="#000000" stroke="#000000" points="2409.6534,-493 2338.7699,-493 2338.7699,-457 2409.6534,-457 2409.6534,-493"/>
<text text-anchor="middle" x="2374.2116" y="-470.8" font-family="Times,serif" font-size="14.00" fill="#ffffff">tauJoin_4</text>
</g>
<!-- p_25&#45;&gt;tauJoin_4 -->
<g id="edge71" class="edge">
<title>p_25-&gt;tauJoin_4</title>
<path fill="none" stroke="#000000" d="M2303.1156,-475C2311.1795,-475 2320.0614,-475 2328.7345,-475"/>
<polygon fill="#000000" stroke="#000000" points="2328.7585,-478.5001 2338.7585,-475 2328.7585,-471.5001 2328.7585,-478.5001"/>
</g>
<!-- InsertFineNotification -->
<g id="node20" class="node">
<title>InsertFineNotification</title>
<polygon fill="none" stroke="#000000" points="750.5346,-393 609.717,-393 609.717,-357 750.5346,-357 750.5346,-393"/>
<text text-anchor="middle" x="680.1258" y="-370.8" font-family="Times,serif" font-size="14.00" fill="#000000">InsertFineNotification</text>
</g>
<!-- p_5&#45;&gt;InsertFineNotification -->
<g id="edge20" class="edge">
<title>p_5-&gt;InsertFineNotification</title>
<path fill="none" stroke="#000000" d="M545.412,-331.3109C557.3621,-336.6602 572.4442,-343.0852 586.2309,-348 591.9975,-350.0558 598.0046,-352.0686 604.0696,-354.0096"/>
<polygon fill="#000000" stroke="#000000" points="603.033,-357.3526 613.6219,-356.9967 605.1223,-350.6716 603.033,-357.3526"/>
</g>
<!-- skip_5 -->
<g id="node21" class="node">
<title>skip_5</title>
<polygon fill="#000000" stroke="#000000" points="707.1258,-339 653.1258,-339 653.1258,-303 707.1258,-303 707.1258,-339"/>
<text text-anchor="middle" x="680.1258" y="-316.8" font-family="Times,serif" font-size="14.00" fill="#ffffff">skip_5</text>
</g>
<!-- p_5&#45;&gt;skip_5 -->
<g id="edge21" class="edge">
<title>p_5-&gt;skip_5</title>
<path fill="none" stroke="#000000" d="M550.5599,-321C576.0947,-321 614.4283,-321 642.7801,-321"/>
<polygon fill="#000000" stroke="#000000" points="643.11,-324.5001 653.1099,-321 643.1099,-317.5001 643.11,-324.5001"/>
</g>
<!-- SendFine -->
<g id="node22" class="node">
<title>SendFine</title>
<polygon fill="none" stroke="#000000" points="1693.5105,-247 1624.7403,-247 1624.7403,-211 1693.5105,-211 1693.5105,-247"/>
<text text-anchor="middle" x="1659.1254" y="-224.8" font-family="Times,serif" font-size="14.00" fill="#000000">SendFine</text>
</g>
<!-- p_6&#45;&gt;SendFine -->
<g id="edge22" class="edge">
<title>p_6-&gt;SendFine</title>
<path fill="none" stroke="#000000" d="M864.838,-242.0973C903.1628,-230.4401 979.8799,-210 1046.6315,-210 1046.6315,-210 1046.6315,-210 1322.0659,-210 1426.9975,-210 1550.0134,-219.2927 1614.4984,-224.8804"/>
<polygon fill="#000000" stroke="#000000" points="1614.4428,-228.3889 1624.7106,-225.7769 1615.055,-221.4157 1614.4428,-228.3889"/>
</g>
<!-- InsertDateAppealToPrefecture -->
<g id="node23" class="node">
<title>InsertDateAppealToPrefecture</title>
<polygon fill="none" stroke="#000000" points="773.9157,-244 586.3359,-244 586.3359,-208 773.9157,-208 773.9157,-244"/>
<text text-anchor="middle" x="680.1258" y="-221.8" font-family="Times,serif" font-size="14.00" fill="#000000">InsertDateAppealToPrefecture</text>
</g>
<!-- p_7&#45;&gt;InsertDateAppealToPrefecture -->
<g id="edge23" class="edge">
<title>p_7-&gt;InsertDateAppealToPrefecture</title>
<path fill="none" stroke="#000000" d="M550.5599,-226C558.1035,-226 566.764,-226 575.9543,-226"/>
<polygon fill="#000000" stroke="#000000" points="576.1068,-229.5001 586.1067,-226 576.1067,-222.5001 576.1068,-229.5001"/>
</g>
<!-- skip_6 -->
<g id="node24" class="node">
<title>skip_6</title>
<polygon fill="#000000" stroke="#000000" points="707.1258,-190 653.1258,-190 653.1258,-154 707.1258,-154 707.1258,-190"/>
<text text-anchor="middle" x="680.1258" y="-167.8" font-family="Times,serif" font-size="14.00" fill="#ffffff">skip_6</text>
</g>
<!-- p_7&#45;&gt;skip_6 -->
<g id="edge24" class="edge">
<title>p_7-&gt;skip_6</title>
<path fill="none" stroke="#000000" d="M545.412,-215.6891C557.3621,-210.3398 572.4442,-203.9148 586.2309,-199 604.6617,-192.4296 625.5482,-186.298 642.9347,-181.5441"/>
<polygon fill="#000000" stroke="#000000" points="643.9745,-184.8889 652.722,-178.9113 642.1561,-178.1292 643.9745,-184.8889"/>
</g>
<!-- Payment -->
<g id="node25" class="node">
<title>Payment</title>
<polygon fill="none" stroke="#000000" points="712.6188,-136 647.6328,-136 647.6328,-100 712.6188,-100 712.6188,-136"/>
<text text-anchor="middle" x="680.1258" y="-113.8" font-family="Times,serif" font-size="14.00" fill="#000000">Payment</text>
</g>
<!-- p_8&#45;&gt;Payment -->
<g id="edge25" class="edge">
<title>p_8-&gt;Payment</title>
<path fill="none" stroke="#000000" d="M549.846,-102.2231C573.7232,-105.1146 609.1964,-109.4104 637.1007,-112.7896"/>
<polygon fill="#000000" stroke="#000000" points="637.0364,-116.3074 647.3847,-114.035 637.878,-109.3581 637.0364,-116.3074"/>
</g>
<!-- p_16&#45;&gt;tauJoin_4 -->
<g id="edge47" class="edge">
<title>p_16-&gt;tauJoin_4</title>
<path fill="none" stroke="#000000" d="M1077.1981,-126.7337C1128.0205,-127.8884 1233.1141,-130 1322.0659,-130 1322.0659,-130 1322.0659,-130 2171.0704,-130 2317.7492,-130 2360.6426,-364.4275 2371.1866,-446.7969"/>
<polygon fill="#000000" stroke="#000000" points="2367.7379,-447.4318 2372.4177,-456.937 2374.6869,-446.5881 2367.7379,-447.4318"/>
</g>
<!-- sink -->
<g id="node61" class="node">
<title>sink</title>
<ellipse fill="none" stroke="#000000" cx="2969.1681" cy="-587" rx="27.2489" ry="27.2489"/>
<ellipse fill="none" stroke="#000000" cx="2969.1681" cy="-587" rx="31.266" ry="31.266"/>
<text text-anchor="middle" x="2969.1681" y="-582.8" font-family="Times,serif" font-size="14.00" fill="#000000">sink</text>
</g>
<!-- tauJoin_5&#45;&gt;sink -->
<g id="edge78" class="edge">
<title>tauJoin_5-&gt;sink</title>
<path fill="none" stroke="#000000" d="M2902.0393,-587C2910.3437,-587 2919.2708,-587 2927.8179,-587"/>
<polygon fill="#000000" stroke="#000000" points="2927.9877,-590.5001 2937.9876,-587 2927.9876,-583.5001 2927.9877,-590.5001"/>
</g>
<!-- p_9 -->
<g id="node26" class="node">
<title>p_9</title>
<ellipse fill="none" stroke="#000000" cx="840.3711" cy="-375" rx="27" ry="18"/>
<text text-anchor="middle" x="840.3711" y="-370.8" font-family="Times,serif" font-size="14.00" fill="#000000">p_9</text>
</g>
<!-- InsertFineNotification&#45;&gt;p_9 -->
<g id="edge26" class="edge">
<title>InsertFineNotification-&gt;p_9</title>
<path fill="none" stroke="#000000" d="M750.4117,-375C768.4498,-375 787.1631,-375 802.82,-375"/>
<polygon fill="#000000" stroke="#000000" points="803.1253,-378.5001 813.1253,-375 803.1252,-371.5001 803.1253,-378.5001"/>
</g>
<!-- skip_5&#45;&gt;p_9 -->
<g id="edge27" class="edge">
<title>skip_5-&gt;p_9</title>
<path fill="none" stroke="#000000" d="M707.484,-328.041C726.3444,-333.0958 751.9011,-340.3435 774.0207,-348 785.268,-351.8932 797.3788,-356.6489 808.1356,-361.0782"/>
<polygon fill="#000000" stroke="#000000" points="806.9937,-364.3943 817.57,-365.02 809.6923,-357.9354 806.9937,-364.3943"/>
</g>
<!-- p_10 -->
<g id="node27" class="node">
<title>p_10</title>
<ellipse fill="none" stroke="#000000" cx="1866.3587" cy="-306" rx="30.2015" ry="18"/>
<text text-anchor="middle" x="1866.3587" y="-301.8" font-family="Times,serif" font-size="14.00" fill="#000000">p_10</text>
</g>
<!-- SendFine&#45;&gt;p_10 -->
<g id="edge28" class="edge">
<title>SendFine-&gt;p_10</title>
<path fill="none" stroke="#000000" d="M1693.8116,-241.8881C1731.7834,-255.997 1792.3584,-278.5043 1830.708,-292.7536"/>
<polygon fill="#000000" stroke="#000000" points="1829.8316,-296.1617 1840.4245,-296.3638 1832.2697,-289.6 1829.8316,-296.1617"/>
</g>
<!-- p_11 -->
<g id="node28" class="node">
<title>p_11</title>
<ellipse fill="none" stroke="#000000" cx="840.3711" cy="-172" rx="30.2015" ry="18"/>
<text text-anchor="middle" x="840.3711" y="-167.8" font-family="Times,serif" font-size="14.00" fill="#000000">p_11</text>
</g>
<!-- InsertDateAppealToPrefecture&#45;&gt;p_11 -->
<g id="edge29" class="edge">
<title>InsertDateAppealToPrefecture-&gt;p_11</title>
<path fill="none" stroke="#000000" d="M746.0716,-207.9998C755.5025,-205.1467 765.0446,-202.107 774.0207,-199 784.6188,-195.3315 795.9837,-190.8972 806.26,-186.6917"/>
<polygon fill="#000000" stroke="#000000" points="807.8264,-189.8311 815.7184,-182.7623 805.1409,-183.3667 807.8264,-189.8311"/>
</g>
<!-- skip_6&#45;&gt;p_11 -->
<g id="edge30" class="edge">
<title>skip_6-&gt;p_11</title>
<path fill="none" stroke="#000000" d="M707.3092,-172C732.599,-172 770.6254,-172 799.5593,-172"/>
<polygon fill="#000000" stroke="#000000" points="799.7673,-175.5001 809.7673,-172 799.7673,-168.5001 799.7673,-175.5001"/>
</g>
<!-- p_12 -->
<g id="node29" class="node">
<title>p_12</title>
<ellipse fill="none" stroke="#000000" cx="840.3711" cy="-118" rx="30.2015" ry="18"/>
<text text-anchor="middle" x="840.3711" y="-113.8" font-family="Times,serif" font-size="14.00" fill="#000000">p_12</text>
</g>
<!-- Payment&#45;&gt;p_12 -->
<g id="edge31" class="edge">
<title>Payment-&gt;p_12</title>
<path fill="none" stroke="#000000" d="M712.9405,-118C737.9996,-118 772.6775,-118 799.5319,-118"/>
<polygon fill="#000000" stroke="#000000" points="799.7718,-121.5001 809.7717,-118 799.7717,-114.5001 799.7718,-121.5001"/>
</g>
<!-- tauSplit_2 -->
<g id="node30" class="node">
<title>tauSplit_2</title>
<polygon fill="#000000" stroke="#000000" points="980.0622,-393 906.9404,-393 906.9404,-357 980.0622,-357 980.0622,-393"/>
<text text-anchor="middle" x="943.5013" y="-370.8" font-family="Times,serif" font-size="14.00" fill="#ffffff">tauSplit_2</text>
</g>
<!-- p_9&#45;&gt;tauSplit_2 -->
<g id="edge32" class="edge">
<title>p_9-&gt;tauSplit_2</title>
<path fill="none" stroke="#000000" d="M867.4673,-375C876.4145,-375 886.6412,-375 896.6309,-375"/>
<polygon fill="#000000" stroke="#000000" points="896.8919,-378.5001 906.8919,-375 896.8919,-371.5001 896.8919,-378.5001"/>
</g>
<!-- tauJoin_3 -->
<g id="node31" class="node">
<title>tauJoin_3</title>
<polygon fill="#000000" stroke="#000000" points="2206.5122,-383 2135.6287,-383 2135.6287,-347 2206.5122,-347 2206.5122,-383"/>
<text text-anchor="middle" x="2171.0704" y="-360.8" font-family="Times,serif" font-size="14.00" fill="#ffffff">tauJoin_3</text>
</g>
<!-- p_10&#45;&gt;tauJoin_3 -->
<g id="edge33" class="edge">
<title>p_10-&gt;tauJoin_3</title>
<path fill="none" stroke="#000000" d="M1895.2999,-311.6038C1948.4932,-321.9033 2062.1613,-343.9124 2125.7021,-356.2155"/>
<polygon fill="#000000" stroke="#000000" points="2125.3459,-359.7115 2135.8289,-358.1763 2126.6766,-352.8391 2125.3459,-359.7115"/>
</g>
<!-- p_11&#45;&gt;tauJoin_3 -->
<g id="edge34" class="edge">
<title>p_11-&gt;tauJoin_3</title>
<path fill="none" stroke="#000000" d="M870.7759,-172C911.0093,-172 984.1446,-172 1046.6315,-172 1046.6315,-172 1046.6315,-172 1967.9293,-172 2062.9569,-172 2131.2413,-284.3745 2158.2656,-337.6279"/>
<polygon fill="#000000" stroke="#000000" points="2155.2546,-339.4346 2162.8286,-346.843 2161.5277,-336.3284 2155.2546,-339.4346"/>
</g>
<!-- skip_7 -->
<g id="node32" class="node">
<title>skip_7</title>
<polygon fill="#000000" stroke="#000000" points="970.5013,-90 916.5013,-90 916.5013,-54 970.5013,-54 970.5013,-90"/>
<text text-anchor="middle" x="943.5013" y="-67.8" font-family="Times,serif" font-size="14.00" fill="#ffffff">skip_7</text>
</g>
<!-- p_12&#45;&gt;skip_7 -->
<g id="edge35" class="edge">
<title>p_12-&gt;skip_7</title>
<path fill="none" stroke="#000000" d="M864.8115,-107.0986C877.3945,-101.4861 892.9899,-94.53 906.9699,-88.2944"/>
<polygon fill="#000000" stroke="#000000" points="908.6264,-91.388 916.3334,-84.1179 905.7749,-84.9951 908.6264,-91.388"/>
</g>
<!-- skip_8 -->
<g id="node33" class="node">
<title>skip_8</title>
<polygon fill="#000000" stroke="#000000" points="970.5013,-144 916.5013,-144 916.5013,-108 970.5013,-108 970.5013,-144"/>
<text text-anchor="middle" x="943.5013" y="-121.8" font-family="Times,serif" font-size="14.00" fill="#ffffff">skip_8</text>
</g>
<!-- p_12&#45;&gt;skip_8 -->
<g id="edge36" class="edge">
<title>p_12-&gt;skip_8</title>
<path fill="none" stroke="#000000" d="M870.4778,-120.3354C881.6979,-121.2058 894.5676,-122.2041 906.3466,-123.1178"/>
<polygon fill="#000000" stroke="#000000" points="906.1074,-126.6097 916.3481,-123.8937 906.6488,-119.6307 906.1074,-126.6097"/>
</g>
<!-- p_13 -->
<g id="node34" class="node">
<title>p_13</title>
<ellipse fill="none" stroke="#000000" cx="1046.6315" cy="-485" rx="30.2015" ry="18"/>
<text text-anchor="middle" x="1046.6315" y="-480.8" font-family="Times,serif" font-size="14.00" fill="#000000">p_13</text>
</g>
<!-- tauSplit_2&#45;&gt;p_13 -->
<g id="edge37" class="edge">
<title>tauSplit_2-&gt;p_13</title>
<path fill="none" stroke="#000000" d="M960.5311,-393.1643C978.0836,-411.886 1005.5166,-441.1464 1024.6861,-461.5928"/>
<polygon fill="#000000" stroke="#000000" points="1022.1977,-464.0559 1031.5906,-468.9572 1027.3043,-459.2681 1022.1977,-464.0559"/>
</g>
<!-- p_14 -->
<g id="node35" class="node">
<title>p_14</title>
<ellipse fill="none" stroke="#000000" cx="1046.6315" cy="-382" rx="30.2015" ry="18"/>
<text text-anchor="middle" x="1046.6315" y="-377.8" font-family="Times,serif" font-size="14.00" fill="#000000">p_14</text>
</g>
<!-- tauSplit_2&#45;&gt;p_14 -->
<g id="edge38" class="edge">
<title>tauSplit_2-&gt;p_14</title>
<path fill="none" stroke="#000000" d="M980.1515,-377.4876C988.5482,-378.0576 997.5222,-378.6667 1006.0727,-379.2471"/>
<polygon fill="#000000" stroke="#000000" points="1006.011,-382.7508 1016.2251,-379.9362 1006.4851,-375.7669 1006.011,-382.7508"/>
</g>
<!-- p_15 -->
<g id="node36" class="node">
<title>p_15</title>
<ellipse fill="none" stroke="#000000" cx="1046.6315" cy="-328" rx="30.2015" ry="18"/>
<text text-anchor="middle" x="1046.6315" y="-323.8" font-family="Times,serif" font-size="14.00" fill="#000000">p_15</text>
</g>
<!-- tauSplit_2&#45;&gt;p_15 -->
<g id="edge39" class="edge">
<title>tauSplit_2-&gt;p_15</title>
<path fill="none" stroke="#000000" d="M980.1515,-358.2972C990.8785,-353.4086 1002.5477,-348.0905 1013.0724,-343.294"/>
<polygon fill="#000000" stroke="#000000" points="1014.7082,-346.3949 1022.3563,-339.063 1011.8052,-340.0252 1014.7082,-346.3949"/>
</g>
<!-- tauJoin_3&#45;&gt;p_25 -->
<g id="edge70" class="edge">
<title>tauJoin_3-&gt;p_25</title>
<path fill="none" stroke="#000000" d="M2187.8428,-383.1643C2205.1298,-401.886 2232.148,-431.1464 2251.0276,-451.5928"/>
<polygon fill="#000000" stroke="#000000" points="2248.4722,-453.9846 2257.8277,-458.9572 2253.6151,-449.2358 2248.4722,-453.9846"/>
</g>
<!-- skip_7&#45;&gt;p_8 -->
<g id="edge40" class="edge">
<title>skip_7-&gt;p_8</title>
<path fill="none" stroke="#000000" d="M916.1114,-72.773C856.1968,-74.614 709.0308,-79.9528 586.2309,-91 577.7215,-91.7655 568.5911,-92.8006 559.9953,-93.872"/>
<polygon fill="#000000" stroke="#000000" points="559.3229,-90.4296 549.8533,-95.181 560.2191,-97.372 559.3229,-90.4296"/>
</g>
<!-- skip_8&#45;&gt;p_16 -->
<g id="edge49" class="edge">
<title>skip_8-&gt;p_16</title>
<path fill="none" stroke="#000000" d="M970.5975,-126C981.3985,-126 994.0641,-126 1005.9264,-126"/>
<polygon fill="#000000" stroke="#000000" points="1006.0772,-129.5001 1016.0771,-126 1006.0771,-122.5001 1006.0772,-129.5001"/>
</g>
<!-- skip_9 -->
<g id="node37" class="node">
<title>skip_9</title>
<polygon fill="#000000" stroke="#000000" points="1211.3487,-557 1157.3487,-557 1157.3487,-521 1211.3487,-521 1211.3487,-557"/>
<text text-anchor="middle" x="1184.3487" y="-534.8" font-family="Times,serif" font-size="14.00" fill="#ffffff">skip_9</text>
</g>
<!-- p_13&#45;&gt;skip_9 -->
<g id="edge41" class="edge">
<title>p_13-&gt;skip_9</title>
<path fill="none" stroke="#000000" d="M1071.7781,-495.4041C1084.1575,-500.4821 1099.3218,-506.6376 1112.9819,-512 1124.2359,-516.4179 1136.5361,-521.1173 1147.7063,-525.3362"/>
<polygon fill="#000000" stroke="#000000" points="1146.5849,-528.6537 1157.1769,-528.9007 1149.0507,-522.1024 1146.5849,-528.6537"/>
</g>
<!-- AppealToJudge -->
<g id="node38" class="node">
<title>AppealToJudge</title>
<polygon fill="none" stroke="#000000" points="1236.4875,-503 1132.2098,-503 1132.2098,-467 1236.4875,-467 1236.4875,-503"/>
<text text-anchor="middle" x="1184.3487" y="-480.8" font-family="Times,serif" font-size="14.00" fill="#000000">AppealToJudge</text>
</g>
<!-- p_13&#45;&gt;AppealToJudge -->
<g id="edge42" class="edge">
<title>p_13-&gt;AppealToJudge</title>
<path fill="none" stroke="#000000" d="M1077.1954,-485C1090.3913,-485 1106.3383,-485 1121.8511,-485"/>
<polygon fill="#000000" stroke="#000000" points="1121.9492,-488.5001 1131.9492,-485 1121.9491,-481.5001 1121.9492,-488.5001"/>
</g>
<!-- ReceiveResultsAppeal -->
<g id="node39" class="node">
<title>ReceiveResultsAppeal</title>
<polygon fill="none" stroke="#000000" points="1255.5825,-449 1113.1148,-449 1113.1148,-413 1255.5825,-413 1255.5825,-449"/>
<text text-anchor="middle" x="1184.3487" y="-426.8" font-family="Times,serif" font-size="14.00" fill="#000000">ReceiveResultsAppeal</text>
</g>
<!-- p_14&#45;&gt;ReceiveResultsAppeal -->
<g id="edge43" class="edge">
<title>p_14-&gt;ReceiveResultsAppeal</title>
<path fill="none" stroke="#000000" d="M1072.8592,-391.3319C1087.3457,-396.4862 1105.9824,-403.1172 1123.8559,-409.4766"/>
<polygon fill="#000000" stroke="#000000" points="1123.0812,-412.9158 1133.6759,-412.9706 1125.4278,-406.3208 1123.0812,-412.9158"/>
</g>
<!-- skip_10 -->
<g id="node40" class="node">
<title>skip_10</title>
<polygon fill="#000000" stroke="#000000" points="1214.6848,-395 1154.0125,-395 1154.0125,-359 1214.6848,-359 1214.6848,-395"/>
<text text-anchor="middle" x="1184.3487" y="-372.8" font-family="Times,serif" font-size="14.00" fill="#ffffff">skip_10</text>
</g>
<!-- p_14&#45;&gt;skip_10 -->
<g id="edge44" class="edge">
<title>p_14-&gt;skip_10</title>
<path fill="none" stroke="#000000" d="M1077.1954,-380.8903C1096.8081,-380.1783 1122.4983,-379.2456 1143.8072,-378.4719"/>
<polygon fill="#000000" stroke="#000000" points="1144.0038,-381.9672 1153.8702,-378.1066 1143.7498,-374.9718 1144.0038,-381.9672"/>
</g>
<!-- skip_11 -->
<g id="node41" class="node">
<title>skip_11</title>
<polygon fill="#000000" stroke="#000000" points="1795.1242,-420 1734.4519,-420 1734.4519,-384 1795.1242,-384 1795.1242,-420"/>
<text text-anchor="middle" x="1764.7881" y="-397.8" font-family="Times,serif" font-size="14.00" fill="#ffffff">skip_11</text>
</g>
<!-- p_15&#45;&gt;skip_11 -->
<g id="edge45" class="edge">
<title>p_15-&gt;skip_11</title>
<path fill="none" stroke="#000000" d="M1077.0377,-329.341C1117.9866,-331.5682 1192.9641,-337.1327 1255.7155,-350 1316.1863,-362.3997 1327.52,-380.895 1388.4163,-391 1509.2552,-411.0518 1654.8415,-407.6429 1724.2065,-404.3747"/>
<polygon fill="#000000" stroke="#000000" points="1724.4583,-407.8666 1734.2727,-403.8757 1724.1117,-400.8752 1724.4583,-407.8666"/>
</g>
<!-- tauSplit_3 -->
<g id="node42" class="node">
<title>tauSplit_3</title>
<polygon fill="#000000" stroke="#000000" points="1220.9096,-303 1147.7878,-303 1147.7878,-267 1220.9096,-267 1220.9096,-303"/>
<text text-anchor="middle" x="1184.3487" y="-280.8" font-family="Times,serif" font-size="14.00" fill="#ffffff">tauSplit_3</text>
</g>
<!-- p_15&#45;&gt;tauSplit_3 -->
<g id="edge46" class="edge">
<title>p_15-&gt;tauSplit_3</title>
<path fill="none" stroke="#000000" d="M1073.5117,-319.6071C1091.8397,-313.8845 1116.5839,-306.1585 1138.043,-299.4582"/>
<polygon fill="#000000" stroke="#000000" points="1139.1343,-302.7842 1147.6366,-296.4628 1137.0479,-296.1023 1139.1343,-302.7842"/>
</g>
<!-- p_17 -->
<g id="node44" class="node">
<title>p_17</title>
<ellipse fill="none" stroke="#000000" cx="1322.0659" cy="-486" rx="30.2015" ry="18"/>
<text text-anchor="middle" x="1322.0659" y="-481.8" font-family="Times,serif" font-size="14.00" fill="#000000">p_17</text>
</g>
<!-- skip_9&#45;&gt;p_17 -->
<g id="edge48" class="edge">
<title>skip_9-&gt;p_17</title>
<path fill="none" stroke="#000000" d="M1211.4884,-528.8182C1224.8256,-523.7927 1241.128,-517.6173 1255.7155,-512 1265.9522,-508.058 1277.0571,-503.7278 1287.2008,-499.7512"/>
<polygon fill="#000000" stroke="#000000" points="1288.5435,-502.9842 1296.5721,-496.071 1285.9847,-496.4686 1288.5435,-502.9842"/>
</g>
<!-- AppealToJudge&#45;&gt;p_17 -->
<g id="edge50" class="edge">
<title>AppealToJudge-&gt;p_17</title>
<path fill="none" stroke="#000000" d="M1236.8065,-485.3809C1251.5863,-485.4882 1267.4365,-485.6033 1281.4126,-485.7048"/>
<polygon fill="#000000" stroke="#000000" points="1281.6609,-489.2066 1291.6861,-485.7794 1281.7118,-482.2068 1281.6609,-489.2066"/>
</g>
<!-- p_18 -->
<g id="node45" class="node">
<title>p_18</title>
<ellipse fill="none" stroke="#000000" cx="1322.0659" cy="-431" rx="30.2015" ry="18"/>
<text text-anchor="middle" x="1322.0659" y="-426.8" font-family="Times,serif" font-size="14.00" fill="#000000">p_18</text>
</g>
<!-- ReceiveResultsAppeal&#45;&gt;p_18 -->
<g id="edge51" class="edge">
<title>ReceiveResultsAppeal-&gt;p_18</title>
<path fill="none" stroke="#000000" d="M1255.6276,-431C1264.3896,-431 1273.0992,-431 1281.1881,-431"/>
<polygon fill="#000000" stroke="#000000" points="1281.4165,-434.5001 1291.4164,-431 1281.4164,-427.5001 1281.4165,-434.5001"/>
</g>
<!-- skip_10&#45;&gt;p_18 -->
<g id="edge52" class="edge">
<title>skip_10-&gt;p_18</title>
<path fill="none" stroke="#000000" d="M1214.6234,-388.2645C1227.3414,-393.0457 1242.2746,-398.7237 1255.7155,-404 1266.0673,-408.0637 1277.2829,-412.5828 1287.4957,-416.7434"/>
<polygon fill="#000000" stroke="#000000" points="1286.3384,-420.0514 1296.9193,-420.5959 1288.9874,-413.572 1286.3384,-420.0514"/>
</g>
<!-- p_23 -->
<g id="node46" class="node">
<title>p_23</title>
<ellipse fill="none" stroke="#000000" cx="1866.3587" cy="-402" rx="30.2015" ry="18"/>
<text text-anchor="middle" x="1866.3587" y="-397.8" font-family="Times,serif" font-size="14.00" fill="#000000">p_23</text>
</g>
<!-- skip_11&#45;&gt;p_23 -->
<g id="edge53" class="edge">
<title>skip_11-&gt;p_23</title>
<path fill="none" stroke="#000000" d="M1794.9876,-402C1804.6363,-402 1815.4784,-402 1825.7426,-402"/>
<polygon fill="#000000" stroke="#000000" points="1825.7486,-405.5001 1835.7485,-402 1825.7485,-398.5001 1825.7486,-405.5001"/>
</g>
<!-- p_19 -->
<g id="node47" class="node">
<title>p_19</title>
<ellipse fill="none" stroke="#000000" cx="1322.0659" cy="-310" rx="30.2015" ry="18"/>
<text text-anchor="middle" x="1322.0659" y="-305.8" font-family="Times,serif" font-size="14.00" fill="#000000">p_19</text>
</g>
<!-- tauSplit_3&#45;&gt;p_19 -->
<g id="edge54" class="edge">
<title>tauSplit_3-&gt;p_19</title>
<path fill="none" stroke="#000000" d="M1221.2543,-291.6995C1240.2997,-295.1569 1263.5355,-299.3749 1282.8976,-302.8897"/>
<polygon fill="#000000" stroke="#000000" points="1282.4505,-306.3657 1292.9148,-304.7082 1283.7008,-299.4783 1282.4505,-306.3657"/>
</g>
<!-- p_20 -->
<g id="node48" class="node">
<title>p_20</title>
<ellipse fill="none" stroke="#000000" cx="1322.0659" cy="-256" rx="30.2015" ry="18"/>
<text text-anchor="middle" x="1322.0659" y="-251.8" font-family="Times,serif" font-size="14.00" fill="#000000">p_20</text>
</g>
<!-- tauSplit_3&#45;&gt;p_20 -->
<g id="edge55" class="edge">
<title>tauSplit_3-&gt;p_20</title>
<path fill="none" stroke="#000000" d="M1221.2543,-277.2285C1240.4348,-273.1896 1263.8653,-268.2557 1283.3089,-264.1613"/>
<polygon fill="#000000" stroke="#000000" points="1284.2941,-267.5307 1293.3582,-262.0452 1282.8516,-260.6809 1284.2941,-267.5307"/>
</g>
<!-- p_26 -->
<g id="node57" class="node">
<title>p_26</title>
<ellipse fill="none" stroke="#000000" cx="2475.7822" cy="-510" rx="30.2015" ry="18"/>
<text text-anchor="middle" x="2475.7822" y="-505.8" font-family="Times,serif" font-size="14.00" fill="#000000">p_26</text>
</g>
<!-- tauJoin_4&#45;&gt;p_26 -->
<g id="edge72" class="edge">
<title>tauJoin_4-&gt;p_26</title>
<path fill="none" stroke="#000000" d="M2409.4511,-487.1431C2419.2488,-490.5193 2429.9009,-494.1899 2439.7438,-497.5816"/>
<polygon fill="#000000" stroke="#000000" points="2438.6606,-500.9103 2449.2554,-500.8592 2440.9412,-494.2922 2438.6606,-500.9103"/>
</g>
<!-- tauJoin_2 -->
<g id="node55" class="node">
<title>tauJoin_2</title>
<polygon fill="#000000" stroke="#000000" points="2003.371,-454 1932.4875,-454 1932.4875,-418 2003.371,-418 2003.371,-454"/>
<text text-anchor="middle" x="1967.9293" y="-431.8" font-family="Times,serif" font-size="14.00" fill="#ffffff">tauJoin_2</text>
</g>
<!-- p_17&#45;&gt;tauJoin_2 -->
<g id="edge65" class="edge">
<title>p_17-&gt;tauJoin_2</title>
<path fill="none" stroke="#000000" d="M1352.7386,-486C1411.9625,-486 1546.187,-486 1659.1254,-486 1659.1254,-486 1659.1254,-486 1764.7881,-486 1820.487,-486 1882.3518,-468.0573 1923.0074,-453.6688"/>
<polygon fill="#000000" stroke="#000000" points="1924.4021,-456.8863 1932.6159,-450.1943 1922.0216,-450.3035 1924.4021,-456.8863"/>
</g>
<!-- p_18&#45;&gt;tauJoin_2 -->
<g id="edge66" class="edge">
<title>p_18-&gt;tauJoin_2</title>
<path fill="none" stroke="#000000" d="M1352.2541,-433.5451C1411.1966,-438.2875 1545.7505,-448 1659.1254,-448 1659.1254,-448 1659.1254,-448 1764.7881,-448 1819.0154,-448 1881.2438,-443.6861 1922.3843,-440.2313"/>
<polygon fill="#000000" stroke="#000000" points="1922.7074,-443.7165 1932.3717,-439.3746 1922.1091,-436.7421 1922.7074,-443.7165"/>
</g>
<!-- p_23&#45;&gt;tauJoin_2 -->
<g id="edge67" class="edge">
<title>p_23-&gt;tauJoin_2</title>
<path fill="none" stroke="#000000" d="M1893.0451,-410.9331C1902.2207,-414.0046 1912.7626,-417.5334 1922.9846,-420.9551"/>
<polygon fill="#000000" stroke="#000000" points="1922.0381,-424.3291 1932.632,-424.1845 1924.2602,-417.6911 1922.0381,-424.3291"/>
</g>
<!-- NotifyResultsAppealToOffender -->
<g id="node49" class="node">
<title>NotifyResultsAppealToOffender</title>
<polygon fill="none" stroke="#000000" points="1588.8163,-382 1388.2828,-382 1388.2828,-346 1588.8163,-346 1588.8163,-382"/>
<text text-anchor="middle" x="1488.5496" y="-359.8" font-family="Times,serif" font-size="14.00" fill="#000000">NotifyResultsAppealToOffender</text>
</g>
<!-- p_19&#45;&gt;NotifyResultsAppealToOffender -->
<g id="edge56" class="edge">
<title>p_19-&gt;NotifyResultsAppealToOffender</title>
<path fill="none" stroke="#000000" d="M1346.6843,-320.8623C1359.0682,-326.1092 1374.3913,-332.2755 1388.4163,-337 1394.6643,-339.1047 1401.1735,-341.1597 1407.7415,-343.1362"/>
<polygon fill="#000000" stroke="#000000" points="1406.8015,-346.5079 1417.3828,-345.9724 1408.777,-339.7924 1406.8015,-346.5079"/>
</g>
<!-- skip_12 -->
<g id="node50" class="node">
<title>skip_12</title>
<polygon fill="#000000" stroke="#000000" points="1518.8857,-328 1458.2134,-328 1458.2134,-292 1518.8857,-292 1518.8857,-328"/>
<text text-anchor="middle" x="1488.5496" y="-305.8" font-family="Times,serif" font-size="14.00" fill="#ffffff">skip_12</text>
</g>
<!-- p_19&#45;&gt;skip_12 -->
<g id="edge57" class="edge">
<title>p_19-&gt;skip_12</title>
<path fill="none" stroke="#000000" d="M1352.6015,-310C1379.355,-310 1418.4477,-310 1447.853,-310"/>
<polygon fill="#000000" stroke="#000000" points="1448.2075,-313.5001 1458.2075,-310 1448.2074,-306.5001 1448.2075,-313.5001"/>
</g>
<!-- AddPenalty -->
<g id="node51" class="node">
<title>AddPenalty</title>
<polygon fill="none" stroke="#000000" points="1529.6492,-274 1447.4499,-274 1447.4499,-238 1529.6492,-238 1529.6492,-274"/>
<text text-anchor="middle" x="1488.5496" y="-251.8" font-family="Times,serif" font-size="14.00" fill="#000000">AddPenalty</text>
</g>
<!-- p_20&#45;&gt;AddPenalty -->
<g id="edge58" class="edge">
<title>p_20-&gt;AddPenalty</title>
<path fill="none" stroke="#000000" d="M1352.6015,-256C1376.1579,-256 1409.2805,-256 1436.9334,-256"/>
<polygon fill="#000000" stroke="#000000" points="1437.2326,-259.5001 1447.2325,-256 1437.2325,-252.5001 1437.2326,-259.5001"/>
</g>
<!-- p_21 -->
<g id="node52" class="node">
<title>p_21</title>
<ellipse fill="none" stroke="#000000" cx="1659.1254" cy="-345" rx="30.2015" ry="18"/>
<text text-anchor="middle" x="1659.1254" y="-340.8" font-family="Times,serif" font-size="14.00" fill="#000000">p_21</text>
</g>
<!-- NotifyResultsAppealToOffender&#45;&gt;p_21 -->
<g id="edge59" class="edge">
<title>NotifyResultsAppealToOffender-&gt;p_21</title>
<path fill="none" stroke="#000000" d="M1588.7608,-352.8377C1599.4041,-351.6522 1609.7273,-350.5023 1619.0395,-349.4651"/>
<polygon fill="#000000" stroke="#000000" points="1619.5357,-352.9315 1629.0867,-348.3459 1618.7607,-345.9746 1619.5357,-352.9315"/>
</g>
<!-- skip_12&#45;&gt;p_21 -->
<g id="edge60" class="edge">
<title>skip_12-&gt;p_21</title>
<path fill="none" stroke="#000000" d="M1519.0451,-316.2573C1547.3703,-322.0693 1589.6783,-330.7503 1620.3834,-337.0506"/>
<polygon fill="#000000" stroke="#000000" points="1619.8152,-340.5069 1630.3146,-339.0884 1621.2222,-333.6498 1619.8152,-340.5069"/>
</g>
<!-- p_22 -->
<g id="node53" class="node">
<title>p_22</title>
<ellipse fill="none" stroke="#000000" cx="1659.1254" cy="-288" rx="30.2015" ry="18"/>
<text text-anchor="middle" x="1659.1254" y="-283.8" font-family="Times,serif" font-size="14.00" fill="#000000">p_22</text>
</g>
<!-- AddPenalty&#45;&gt;p_22 -->
<g id="edge61" class="edge">
<title>AddPenalty-&gt;p_22</title>
<path fill="none" stroke="#000000" d="M1529.8412,-263.7463C1557.2939,-268.8964 1593.1215,-275.6177 1620.0967,-280.6782"/>
<polygon fill="#000000" stroke="#000000" points="1619.492,-284.1258 1629.9659,-282.5297 1620.7827,-277.2458 1619.492,-284.1258"/>
</g>
<!-- tauJoin_1 -->
<g id="node54" class="node">
<title>tauJoin_1</title>
<polygon fill="#000000" stroke="#000000" points="1800.2298,-363 1729.3463,-363 1729.3463,-327 1800.2298,-327 1800.2298,-363"/>
<text text-anchor="middle" x="1764.7881" y="-340.8" font-family="Times,serif" font-size="14.00" fill="#ffffff">tauJoin_1</text>
</g>
<!-- p_21&#45;&gt;tauJoin_1 -->
<g id="edge62" class="edge">
<title>p_21-&gt;tauJoin_1</title>
<path fill="none" stroke="#000000" d="M1689.6874,-345C1698.9155,-345 1709.2533,-345 1719.2373,-345"/>
<polygon fill="#000000" stroke="#000000" points="1719.4524,-348.5001 1729.4524,-345 1719.4524,-341.5001 1719.4524,-348.5001"/>
</g>
<!-- p_22&#45;&gt;tauJoin_1 -->
<g id="edge63" class="edge">
<title>p_22-&gt;tauJoin_1</title>
<path fill="none" stroke="#000000" d="M1681.7927,-300.2279C1693.6315,-306.6144 1708.5094,-314.6403 1722.3872,-322.1268"/>
<polygon fill="#000000" stroke="#000000" points="1720.8578,-325.2785 1731.3206,-326.9459 1724.1812,-319.1177 1720.8578,-325.2785"/>
</g>
<!-- tauJoin_1&#45;&gt;p_23 -->
<g id="edge64" class="edge">
<title>tauJoin_1-&gt;p_23</title>
<path fill="none" stroke="#000000" d="M1796.9256,-363.0352C1809.1525,-369.8967 1823.0539,-377.698 1835.1895,-384.5083"/>
<polygon fill="#000000" stroke="#000000" points="1833.635,-387.6494 1844.0686,-389.4911 1837.0608,-381.5449 1833.635,-387.6494"/>
</g>
<!-- p_24 -->
<g id="node56" class="node">
<title>p_24</title>
<ellipse fill="none" stroke="#000000" cx="2069.4999" cy="-412" rx="30.2015" ry="18"/>
<text text-anchor="middle" x="2069.4999" y="-407.8" font-family="Times,serif" font-size="14.00" fill="#000000">p_24</text>
</g>
<!-- tauJoin_2&#45;&gt;p_24 -->
<g id="edge68" class="edge">
<title>tauJoin_2-&gt;p_24</title>
<path fill="none" stroke="#000000" d="M2003.1687,-427.6733C2012.1607,-425.5486 2021.8723,-423.2539 2031.0176,-421.0929"/>
<polygon fill="#000000" stroke="#000000" points="2032.1066,-424.4321 2041.0337,-418.7262 2030.4968,-417.6197 2032.1066,-424.4321"/>
</g>
<!-- p_24&#45;&gt;tauJoin_3 -->
<g id="edge69" class="edge">
<title>p_24-&gt;tauJoin_3</title>
<path fill="none" stroke="#000000" d="M2093.5707,-400.8617C2103.3785,-396.3233 2115.0446,-390.9249 2126.3097,-385.7122"/>
<polygon fill="#000000" stroke="#000000" points="2128.0228,-388.7762 2135.6284,-381.4002 2125.0831,-382.4233 2128.0228,-388.7762"/>
</g>
<!-- SendForCreditCollection -->
<g id="node58" class="node">
<title>SendForCreditCollection</title>
<polygon fill="none" stroke="#000000" points="2698.7752,-582 2542.2517,-582 2542.2517,-546 2698.7752,-546 2698.7752,-582"/>
<text text-anchor="middle" x="2620.5134" y="-559.8" font-family="Times,serif" font-size="14.00" fill="#000000">SendForCreditCollection</text>
</g>
<!-- p_26&#45;&gt;SendForCreditCollection -->
<g id="edge73" class="edge">
<title>p_26-&gt;SendForCreditCollection</title>
<path fill="none" stroke="#000000" d="M2500.5465,-520.4529C2512.9662,-525.5991 2528.2774,-531.799 2542.1326,-537 2546.9771,-538.8185 2552.0068,-540.6588 2557.0742,-542.4788"/>
<polygon fill="#000000" stroke="#000000" points="2556.232,-545.8939 2566.8267,-545.943 2558.575,-539.2976 2556.232,-545.8939"/>
</g>
<!-- skip_13 -->
<g id="node59" class="node">
<title>skip_13</title>
<polygon fill="#000000" stroke="#000000" points="2650.8496,-528 2590.1773,-528 2590.1773,-492 2650.8496,-492 2650.8496,-528"/>
<text text-anchor="middle" x="2620.5134" y="-505.8" font-family="Times,serif" font-size="14.00" fill="#ffffff">skip_13</text>
</g>
<!-- p_26&#45;&gt;skip_13 -->
<g id="edge74" class="edge">
<title>p_26-&gt;skip_13</title>
<path fill="none" stroke="#000000" d="M2506.476,-510C2527.7753,-510 2556.3808,-510 2579.6132,-510"/>
<polygon fill="#000000" stroke="#000000" points="2579.864,-513.5001 2589.8639,-510 2579.8639,-506.5001 2579.864,-513.5001"/>
</g>
<!-- p_27 -->
<g id="node60" class="node">
<title>p_27</title>
<ellipse fill="none" stroke="#000000" cx="2765.2446" cy="-564" rx="30.2015" ry="18"/>
<text text-anchor="middle" x="2765.2446" y="-559.8" font-family="Times,serif" font-size="14.00" fill="#000000">p_27</text>
</g>
<!-- SendForCreditCollection&#45;&gt;p_27 -->
<g id="edge75" class="edge">
<title>SendForCreditCollection-&gt;p_27</title>
<path fill="none" stroke="#000000" d="M2698.8094,-564C2707.7011,-564 2716.4727,-564 2724.5822,-564"/>
<polygon fill="#000000" stroke="#000000" points="2724.8161,-567.5001 2734.816,-564 2724.816,-560.5001 2724.8161,-567.5001"/>
</g>
<!-- skip_13&#45;&gt;p_27 -->
<g id="edge76" class="edge">
<title>skip_13-&gt;p_27</title>
<path fill="none" stroke="#000000" d="M2650.7999,-520.0019C2665.4023,-524.9338 2683.1291,-531.0821 2698.8942,-537 2709.3939,-540.9414 2720.7297,-545.4564 2731.0097,-549.6518"/>
<polygon fill="#000000" stroke="#000000" points="2729.9007,-552.9801 2740.4804,-553.5471 2732.5635,-546.5063 2729.9007,-552.9801"/>
</g>
<!-- p_27&#45;&gt;tauJoin_5 -->
<g id="edge77" class="edge">
<title>p_27-&gt;tauJoin_5</title>
<path fill="none" stroke="#000000" d="M2793.808,-570.468C2802.3398,-572.4 2811.914,-574.568 2821.2503,-576.6821"/>
<polygon fill="#000000" stroke="#000000" points="2820.7011,-580.1463 2831.2272,-578.9413 2822.2472,-573.3192 2820.7011,-580.1463"/>
</g>
</g>
</svg>